<svg width="297" height="279" viewBox="0 0 297 279" fill="none" xmlns="http://www.w3.org/2000/svg">
<g id="speedometer">
<g id="speed-indicator" filter="url(#filter0_f_3_284)">
<path fill-rule="evenodd" clip-rule="evenodd" d="M267.154 68.8152C269.291 73.1025 271.239 77.6065 272.981 82.3008C273.147 82.7489 273.312 83.1987 273.474 83.6502C275.23 88.5294 276.765 93.6083 278.059 98.8579C281.444 112.589 283.187 127.488 282.944 143.035C282.702 158.582 280.496 173.42 276.684 187.038C273.679 197.775 269.676 207.754 264.849 216.726C271.546 208.228 277.141 198.813 281.412 188.696C287.331 174.677 290.708 159.309 290.96 143.16C291.212 127.01 288.315 111.545 282.836 97.3482C280.837 92.1689 278.495 87.1584 275.837 82.3454C275.668 82.0397 275.498 81.7348 275.326 81.4307C272.858 77.0517 270.127 72.8393 267.154 68.8152Z" fill="#FF1F47"/>
</g>
<g id="fuel">
<text id="fuel-value" fill="white" xml:space="preserve" style="white-space: pre" font-family="Montserrat" font-size="12" font-weight="600" letter-spacing="0em"><tspan x="117.363" y="256.803">11 / 80 &#x43b;</tspan></text>
<path id="fuel-bar-outline" d="M86.8247 252.847L82.3055 262.417C99.7016 270.37 119.009 274.777 139.332 274.733C159.655 274.689 178.944 270.199 196.305 262.171L191.745 252.62" stroke="url(#paint0_linear_3_284)" stroke-width="4"/>
<g id="fuel-icon">
<g id="Group">
<g id="Group_2">
<path id="Vector" d="M67.7014 256.847L72.6707 259.268C72.9231 259.391 73.0862 259.575 73.0351 259.68L72.9133 259.93C72.8621 260.035 72.6161 260.021 72.3637 259.898L67.3943 257.477C67.1419 257.354 66.9788 257.17 67.03 257.065L67.1518 256.814C67.203 256.709 67.449 256.724 67.7014 256.847Z" fill="white"/>
</g>
</g>
<g id="Group_3">
<g id="Group_4">
<path id="Vector_2" d="M72.8974 246.433L77.6993 248.772C78.0087 248.923 78.1374 249.296 77.9866 249.605L77.7322 250.127C76.8496 251.939 77.7899 254.743 76.4881 256.282V256.282C76.4727 256.3 76.457 256.318 76.4411 256.336C75.8778 256.994 75.364 257.978 75.5639 258.578C75.6096 258.685 75.6747 258.781 75.7543 258.86C76.0475 259.154 76.5283 259.244 76.9229 259.115C77.0409 259.077 77.1524 259.016 77.2512 258.935C78.0124 258.283 78.0525 256.365 78.0065 255.698C77.9898 255.562 77.6052 252.338 79.9273 251.684C80.1772 251.591 82.3904 250.783 83.5088 251.519C83.6537 251.614 83.6938 251.809 83.5983 251.954C83.5029 252.099 83.308 252.139 83.163 252.043C83.0636 251.986 82.9584 251.94 82.8495 251.907C82.6259 251.839 82.4496 252.058 82.5007 252.286V252.286C82.5764 252.621 82.3659 252.955 82.0304 253.031L80.5676 253.358C80.2324 253.436 79.8974 253.227 79.8195 252.892C79.8181 252.886 79.8168 252.88 79.8156 252.874V252.874C79.7699 252.661 79.529 252.555 79.3722 252.707C78.3917 253.654 78.6166 255.597 78.6233 255.635C78.6301 255.749 78.8069 258.417 77.6548 259.409C77.2428 259.754 76.6865 259.873 76.1696 259.725C76.0053 259.69 75.8458 259.635 75.694 259.563C75.3531 259.411 75.091 259.124 74.9709 258.771C74.6535 257.871 75.3115 256.677 75.9504 255.92V255.92C76.7228 255.093 75.4167 254.881 74.9211 255.898L73.6879 258.43C73.5372 258.739 73.1641 258.868 72.8547 258.717L68.0528 256.378C67.7433 256.228 67.6147 255.854 67.7654 255.545L72.0642 246.72C72.2149 246.411 72.5879 246.282 72.8974 246.433ZM71.0962 253.382L73.3375 254.474C73.4922 254.549 73.6787 254.485 73.7541 254.33C73.8295 254.176 73.7651 253.989 73.6104 253.914L71.3692 252.822C71.2145 252.747 71.0279 252.811 70.9526 252.966C70.8772 253.12 70.9415 253.307 71.0962 253.382ZM71.0664 251.174C70.9156 251.483 71.0443 251.856 71.3538 252.007L74.259 253.422C74.5684 253.573 74.9415 253.444 75.0922 253.135L76.5101 250.224C76.6609 249.914 76.5322 249.541 76.2228 249.391L73.3175 247.975C73.0081 247.825 72.635 247.953 72.4843 248.263L71.0664 251.174Z" fill="white"/>
</g>
</g>
</g>
<path id="F" d="M205.111 246.497L204.37 245.046L199.027 247.776L204.486 258.462L206.121 257.627L203.75 252.986L207.167 251.241L206.449 249.836L203.033 251.582L201.403 248.391L205.111 246.497Z" fill="white"/>
<path id="fuel-bar-value" d="M92 259C126.867 269.892 154.66 269.439 187 259" stroke="#0FD682" stroke-width="6" stroke-linecap="round"/>
</g>
<g id="state">
<g id="doors-state">
<g id="&#208;&#161;&#208;&#187;&#208;&#190;&#208;&#185; 1">
<path id="Vector_3" d="M96.691 222.558C96.8884 220.505 97.2189 218.467 97.6802 216.457C97.6975 216.38 97.6971 216.3 97.679 216.224C97.6609 216.147 97.6255 216.075 97.5756 216.015C97.5256 215.954 97.4624 215.905 97.3908 215.872C97.3192 215.839 97.241 215.823 97.1623 215.825H90.2328C89.8342 215.825 89.4447 215.944 89.1141 216.167C88.1922 216.794 86.2863 218.197 85.3852 219.704C84.8548 220.494 84.4674 221.37 84.2406 222.294H84.2147V226.225C84.2151 226.641 84.3744 227.041 84.6601 227.343L88.6376 231.486C88.7873 231.648 88.9683 231.777 89.1696 231.866C89.3708 231.955 89.588 232.002 89.8081 232.004H96.8982C96.8982 232.004 96.6444 222.915 96.691 222.558ZM95.4998 224.997C95.4998 225.082 95.466 225.164 95.4058 225.224C95.3456 225.284 95.2639 225.318 95.1787 225.318H93.7545C93.7119 225.319 93.6696 225.311 93.63 225.295C93.5905 225.279 93.5544 225.256 93.5241 225.226C93.4937 225.196 93.4696 225.161 93.4531 225.121C93.4367 225.082 93.4282 225.04 93.4282 224.997C93.4282 224.911 93.4626 224.828 93.5238 224.766C93.585 224.705 93.668 224.671 93.7545 224.671H95.1787C95.2229 224.671 95.2666 224.681 95.3069 224.699C95.3473 224.717 95.3836 224.743 95.4137 224.776C95.4437 224.808 95.4668 224.846 95.4816 224.888C95.4964 224.93 95.5026 224.974 95.4998 225.018V224.997ZM86.3485 219.968C87.0987 218.832 88.0953 217.88 89.2643 217.182C89.6009 216.971 89.9906 216.859 90.3881 216.861H96.1265C96.1902 216.861 96.253 216.875 96.3104 216.903C96.3679 216.93 96.4183 216.971 96.4581 217.02C96.4979 217.07 96.526 217.128 96.5403 217.19C96.5546 217.252 96.5548 217.317 96.5408 217.379C96.1984 218.753 95.9407 220.147 95.7691 221.553C95.745 221.757 95.6468 221.945 95.4931 222.082C95.3394 222.219 95.1409 222.294 94.9353 222.294H86.0015C85.9162 222.294 85.8322 222.274 85.7568 222.234C85.6814 222.194 85.6171 222.136 85.5694 222.065C85.5218 221.995 85.4923 221.913 85.4837 221.828C85.475 221.744 85.4874 221.658 85.5198 221.579C85.7543 221.022 86.0314 220.483 86.3485 219.968V219.968Z" fill="white"/>
</g>
</g>
<g id="lights-state">
<g id="Layer 1">
<path id="Vector_4" d="M186.247 215.825H186.217V215.864C182.318 215.892 179.215 219.472 179.215 223.886C179.215 228.299 182.318 231.882 186.217 231.908V231.877H186.247C187.39 231.877 188.449 231.32 188.449 230.627V217.119C188.449 216.426 187.395 215.825 186.247 215.825ZM186.366 229.386C183.288 229.358 181.689 227.372 181.689 223.886C181.689 220.4 183.298 218.414 186.374 218.386L186.366 229.386ZM190.703 221.836H196.998C197.124 221.836 197.249 221.811 197.365 221.763C197.482 221.715 197.588 221.644 197.677 221.555C197.766 221.465 197.837 221.36 197.885 221.243C197.934 221.127 197.958 221.002 197.958 220.876C197.958 220.749 197.934 220.624 197.885 220.508C197.837 220.391 197.766 220.286 197.677 220.196C197.588 220.107 197.482 220.036 197.365 219.988C197.249 219.94 197.124 219.915 196.998 219.915H190.703C190.577 219.915 190.452 219.94 190.335 219.988C190.219 220.036 190.113 220.107 190.023 220.196C189.934 220.286 189.864 220.391 189.815 220.508C189.767 220.624 189.742 220.749 189.742 220.876C189.742 221.002 189.767 221.127 189.815 221.243C189.864 221.36 189.934 221.465 190.023 221.555C190.113 221.644 190.219 221.715 190.335 221.763C190.452 221.811 190.577 221.836 190.703 221.836ZM196.998 225.928H190.703C190.44 225.928 190.187 226.032 190.002 226.218C189.816 226.404 189.711 226.656 189.711 226.919C189.711 227.182 189.816 227.434 190.002 227.62C190.187 227.806 190.44 227.911 190.703 227.911H196.998C197.261 227.911 197.513 227.806 197.699 227.62C197.885 227.434 197.989 227.182 197.989 226.919C197.989 226.656 197.885 226.404 197.699 226.218C197.513 226.032 197.261 225.928 196.998 225.928ZM196.998 223.014H190.703C190.573 223.008 190.444 223.029 190.322 223.075C190.201 223.121 190.09 223.191 189.997 223.281C189.903 223.371 189.829 223.478 189.778 223.598C189.727 223.717 189.701 223.845 189.701 223.975C189.701 224.105 189.727 224.233 189.778 224.352C189.829 224.472 189.903 224.579 189.997 224.669C190.09 224.759 190.201 224.829 190.322 224.875C190.444 224.921 190.573 224.942 190.703 224.936H196.998C197.127 224.942 197.257 224.921 197.378 224.875C197.499 224.829 197.61 224.759 197.704 224.669C197.797 224.579 197.872 224.472 197.923 224.352C197.973 224.233 198 224.105 198 223.975C198 223.845 197.973 223.717 197.923 223.598C197.872 223.478 197.797 223.371 197.704 223.281C197.61 223.191 197.499 223.121 197.378 223.075C197.257 223.029 197.127 223.008 196.998 223.014Z" fill="white"/>
</g>
</g>
<g id="engine-state">
<g id="Group_5">
<g id="Group_6">
<path id="Vector_5" d="M146.159 221.734C145.751 221.734 145.42 221.404 145.42 220.996V220.996C145.42 220.587 145.09 220.257 144.682 220.257V220.257C143.932 220.257 143.212 219.959 142.682 219.429L142.249 218.996C142.111 218.858 141.923 218.78 141.727 218.78V218.78C141.319 218.78 140.988 218.449 140.988 218.041V218.041C140.988 217.633 141.319 217.302 141.727 217.302V217.302C142.135 217.302 142.466 216.972 142.466 216.564C142.466 216.155 142.135 215.825 141.727 215.825C140.113 215.825 135.934 215.825 134.34 215.825C133.932 215.825 133.601 216.155 133.601 216.564C133.601 216.972 133.932 217.302 134.34 217.302V217.302C134.748 217.302 135.079 217.633 135.079 218.041V218.041C135.079 218.449 134.748 218.78 134.34 218.78V218.78C134.144 218.78 133.956 218.858 133.818 218.996L132.341 220.473C132.202 220.612 132.124 220.799 132.124 220.996V228.382C132.124 228.579 132.202 228.766 132.341 228.905L135.295 231.859C135.434 231.998 135.621 232.076 135.818 232.076H143.204C143.484 232.076 143.74 231.918 143.865 231.667L145.342 228.713V228.713C145.427 228.544 145.574 228.382 145.763 228.382H146.208C146.643 228.382 146.996 228.03 146.996 227.594V222.522C146.996 222.087 146.643 221.734 146.208 221.734H146.159ZM140.91 225.758L139.433 228.713C139.251 229.075 138.811 229.226 138.442 229.043C138.077 228.861 137.929 228.417 138.111 228.052L138.267 227.74C138.629 227.017 138.103 226.166 137.295 226.166V226.166C136.748 226.166 136.388 225.588 136.634 225.097L138.111 222.143C138.294 221.778 138.738 221.63 139.103 221.812C139.468 221.995 139.615 222.438 139.433 222.803L139.277 223.115C138.915 223.838 139.441 224.689 140.25 224.689V224.689C140.796 224.689 141.157 225.267 140.91 225.758Z" fill="white"/>
</g>
</g>
<g id="Group_7">
<g id="Group_8">
<path id="Vector_6" d="M129.908 220.257C129.5 220.257 129.169 220.587 129.169 220.996V223.212C129.169 223.62 128.839 223.95 128.431 223.95V223.95C128.023 223.95 127.692 223.62 127.692 223.212V220.996C127.692 220.587 127.362 220.257 126.953 220.257C126.545 220.257 126.215 220.587 126.215 220.996V228.382C126.215 228.791 126.545 229.121 126.953 229.121C127.362 229.121 127.692 228.791 127.692 228.382V226.166C127.692 225.758 128.023 225.428 128.431 225.428V225.428C128.839 225.428 129.169 225.758 129.169 226.166V228.382C129.169 228.791 129.5 229.121 129.908 229.121V229.121C130.316 229.121 130.647 228.79 130.647 228.382V220.996C130.647 220.588 130.316 220.257 129.908 220.257V220.257Z" fill="white"/>
</g>
</g>
<g id="Group_9">
<g id="Group_10">
<path id="Vector_7" d="M149.951 220.257H149.212C148.804 220.257 148.473 220.588 148.473 220.996V229.86C148.473 230.268 148.804 230.598 149.212 230.598H149.951C150.767 230.598 151.428 229.937 151.428 229.121V221.734C151.428 220.918 150.767 220.257 149.951 220.257Z" fill="white"/>
</g>
</g>
</g>
</g>
<g id="Mask Group">
<mask id="mask0_3_284" style="mask-type:alpha" maskUnits="userSpaceOnUse" x="0" y="0" width="278" height="213">
<rect id="Rectangle 33" y="0.00012207" width="278" height="212" fill="#C4C4C4"/>
</mask>
<g mask="url(#mask0_3_284)">
<g id="arrow-container">
<path id="arrow" d="M259 207L139 134" stroke="url(#paint1_linear_3_284)" stroke-width="6"/>
<path id="outline" d="M20.5912 206.33C9.26766 186.326 2.86086 163.188 3.00039 138.561C3.25487 93.6473 25.2269 53.9294 58.9179 29.2813C81.7056 12.61 109.854 2.83291 140.271 3.00525C215.656 3.43238 276.423 64.8154 275.996 140.108C275.856 164.735 269.188 187.799 257.638 207.674" stroke="url(#paint2_linear_3_284)" stroke-width="4" stroke-linecap="round"/>
</g>
</g>
</g>
<g id="inner-circle" opacity="0.7">
<g id="Ellipse 12" filter="url(#filter1_f_3_284)">
<circle cx="139" cy="133.001" r="58.5" stroke="white" stroke-width="5"/>
</g>
<g id="Ellipse 13" filter="url(#filter2_f_3_284)">
<circle cx="139" cy="133.001" r="63.5" stroke="white" stroke-width="5"/>
</g>
<circle id="Ellipse 14" cx="139" cy="133.001" r="52" stroke="white" stroke-width="2"/>
</g>
<text id="speed-value" fill="white" xml:space="preserve" style="white-space: pre" font-family="Akrobat" font-size="60" font-weight="bold" letter-spacing="0em"><tspan x="99.1556" y="150.001">368</tspan></text>
<text id="speed-metrics-name" fill="white" xml:space="preserve" style="white-space: pre" font-family="Montserrat" font-size="14" font-weight="600" letter-spacing="0em"><tspan x="118.218" y="167.52">&#x43a;&#x43c; / &#x447;</tspan></text>
<g id="divisions">
<path id="Vector_8" d="M139.172 25.5374C138.682 25.5374 138.214 25.2811 138.214 24.9783V11.5835C138.214 11.2573 138.635 11.0011 139.126 11.0011C139.616 11.0011 140.014 11.2573 140.014 11.5835V24.9783C140.06 25.2811 139.663 25.5374 139.172 25.5374Z" fill="white"/>
<path id="Vector_9" d="M93.0191 36.0901C92.8483 36.0897 92.6811 36.0414 92.5364 35.9508C92.3918 35.8602 92.2757 35.7309 92.2012 35.5776L86.803 23.3476C86.7476 23.2394 86.7188 23.1197 86.7188 22.9982C86.7188 22.8767 86.7476 22.757 86.803 22.6487C86.8439 22.54 86.9063 22.4407 86.9866 22.3566C87.0669 22.2725 87.1635 22.2055 87.2704 22.1595C87.3926 22.1246 87.5221 22.1246 87.6443 22.1595C87.8183 22.1592 87.9886 22.2097 88.134 22.305C88.2794 22.4002 88.3935 22.536 88.4622 22.6953L93.8136 34.8322C93.8599 34.9429 93.8838 35.0617 93.8838 35.1816C93.8838 35.3016 93.8599 35.4203 93.8136 35.5311C93.7228 35.7454 93.5566 35.9194 93.3463 36.0203C93.2417 36.0608 93.1312 36.0844 93.0191 36.0901Z" fill="white"/>
<path id="Vector_10" d="M54.0868 63.1593C53.8705 63.1532 53.6634 63.0707 53.5026 62.9263L44.3654 54.7264C44.282 54.6441 44.2158 54.5461 44.1707 54.4381C44.1255 54.3302 44.1022 54.2144 44.1022 54.0974C44.1022 53.9804 44.1255 53.8646 44.1707 53.7567C44.2158 53.6487 44.282 53.5507 44.3654 53.4684C44.4479 53.3853 44.5462 53.3193 44.6545 53.2743C44.7628 53.2293 44.879 53.2061 44.9963 53.2061C45.1137 53.2061 45.2299 53.2293 45.3382 53.2743C45.4464 53.3193 45.5447 53.3853 45.6273 53.4684L54.7645 61.6684C54.9423 61.8222 55.0515 62.04 55.0683 62.2741C55.0728 62.5126 54.9897 62.7446 54.8346 62.9263C54.7361 63.0196 54.6175 63.0891 54.4879 63.1295C54.3582 63.1698 54.221 63.1801 54.0868 63.1593V63.1593Z" fill="white"/>
<path id="Vector_11" d="M31.4892 104.765C31.3971 104.787 31.3009 104.787 31.2088 104.765L18.3793 100.572C18.1678 100.502 17.9902 100.355 17.882 100.161C17.7738 99.9669 17.7428 99.7392 17.7951 99.5233C17.8543 99.3409 17.9697 99.1819 18.125 99.0689C18.2803 98.956 18.4675 98.8948 18.6597 98.8943H18.9402L31.7696 103.018C31.9977 103.106 32.1878 103.271 32.3071 103.484C32.3897 103.701 32.3897 103.941 32.3071 104.159C32.2496 104.332 32.1403 104.482 31.994 104.59C31.8476 104.699 31.6714 104.76 31.4892 104.765Z" fill="white"/>
<path id="Vector_12" d="M13.2849 153.103C13.0632 153.109 12.8475 153.031 12.6822 152.883C12.5169 152.736 12.4148 152.531 12.3969 152.31C12.3839 152.194 12.3943 152.076 12.4273 151.964C12.4603 151.852 12.5154 151.747 12.5893 151.656C12.6632 151.565 12.7545 151.489 12.8578 151.434C12.9612 151.378 13.0746 151.344 13.1914 151.332L26.7687 149.888C26.991 149.892 27.2042 149.977 27.368 150.127C27.5317 150.277 27.6348 150.482 27.6578 150.702C27.6808 150.923 27.6221 151.144 27.4927 151.324C27.3634 151.505 27.1724 151.632 26.9556 151.681L13.2849 153.103Z" fill="white"/>
<path id="Vector_13" d="M29.7599 203.001C29.6002 203.003 29.4427 202.963 29.3032 202.886C29.1638 202.808 29.0473 202.695 28.9654 202.558C28.854 202.347 28.8283 202.101 28.8935 201.871C28.9587 201.642 29.1099 201.446 29.3159 201.324L40.7666 194.731C40.9051 194.64 41.0677 194.591 41.234 194.591C41.3925 194.593 41.5477 194.638 41.6833 194.72C41.8189 194.802 41.93 194.918 42.0051 195.057C42.0856 195.275 42.0856 195.515 42.0051 195.733C41.9739 195.846 41.9207 195.951 41.8485 196.043C41.7763 196.135 41.6866 196.211 41.5845 196.269L30.2039 202.885C30.0718 202.969 29.9165 203.01 29.7599 203.001V203.001Z" fill="white"/>
<path id="Vector_14" d="M249.707 202.349C249.562 202.394 249.407 202.394 249.263 202.349L237.789 195.756C237.589 195.634 237.439 195.443 237.368 195.22C237.285 195.003 237.285 194.763 237.368 194.545C237.449 194.405 237.564 194.289 237.704 194.208C237.843 194.126 238.001 194.082 238.163 194.079C238.321 194.082 238.475 194.13 238.607 194.219L250.057 200.788C250.26 200.907 250.41 201.099 250.478 201.324C250.53 201.433 250.557 201.552 250.557 201.673C250.557 201.794 250.53 201.913 250.478 202.023C250.389 202.139 250.271 202.231 250.136 202.288C250.001 202.345 249.853 202.366 249.707 202.349Z" fill="white"/>
<path id="Vector_15" d="M252.207 150.773C251.97 150.746 251.753 150.629 251.6 150.447C251.457 150.261 251.391 150.028 251.413 149.795C251.435 149.574 251.538 149.369 251.702 149.219C251.865 149.069 252.078 148.984 252.301 148.979L265.971 150.4C266.208 150.428 266.426 150.544 266.579 150.726C266.721 150.913 266.788 151.146 266.766 151.379C266.748 151.601 266.647 151.809 266.482 151.96C266.318 152.111 266.102 152.195 265.878 152.194L252.207 150.773Z" fill="white"/>
<path id="Vector_16" d="M247.323 104.182C247.134 104.18 246.95 104.118 246.799 104.005C246.648 103.892 246.537 103.734 246.482 103.553C246.435 103.447 246.411 103.332 246.411 103.216C246.411 103.099 246.435 102.984 246.482 102.878C246.593 102.673 246.776 102.515 246.996 102.435L259.872 98.2653H260.153C260.345 98.2659 260.532 98.327 260.687 98.4399C260.843 98.5529 260.958 98.7119 261.017 98.8943C261.085 99.1229 261.062 99.3687 260.953 99.581C260.845 99.7934 260.658 99.9561 260.433 100.036L247.557 104.182H247.323Z" fill="white"/>
<path id="Vector_17" d="M224.515 62.6002C224.39 62.6048 224.265 62.5797 224.152 62.5271C224.038 62.4745 223.938 62.3957 223.861 62.2974C223.703 62.1264 223.619 61.9005 223.627 61.6684C223.645 61.428 223.754 61.2034 223.931 61.0394L233.068 52.9327C233.145 52.8573 233.237 52.7979 233.337 52.7579C233.437 52.7179 233.544 52.6982 233.652 52.6997C233.78 52.6999 233.907 52.727 234.024 52.7792C234.14 52.8314 234.245 52.9075 234.33 53.0025C234.416 53.0832 234.485 53.1806 234.532 53.2888C234.579 53.3969 234.604 53.5136 234.604 53.6315C234.604 53.7494 234.579 53.8661 234.532 53.9743C234.485 54.0825 234.416 54.1799 234.33 54.2605L225.193 62.4604C225.097 62.5317 224.987 62.5812 224.87 62.6053C224.752 62.6295 224.632 62.6277 224.515 62.6002V62.6002Z" fill="white"/>
<path id="Vector_18" d="M185.396 35.7873C185.281 35.8191 185.16 35.8191 185.045 35.7873C184.934 35.7482 184.834 35.6835 184.753 35.5985C184.672 35.5135 184.612 35.4106 184.578 35.2981C184.532 35.1913 184.509 35.0764 184.509 34.9603C184.509 34.8442 184.532 34.7293 184.578 34.6225L190.023 22.4158C190.092 22.2564 190.206 22.1207 190.351 22.0254C190.497 21.9302 190.667 21.8796 190.841 21.88C190.963 21.8451 191.093 21.8451 191.215 21.88C191.428 21.977 191.595 22.1522 191.682 22.3691C191.769 22.586 191.769 22.828 191.682 23.0448L186.237 35.2515C186.162 35.411 186.043 35.5459 185.894 35.6407C185.745 35.7356 185.573 35.7864 185.396 35.7873Z" fill="white"/>
<path id="Vector_19" d="M113.794 20.9482C113.61 20.9955 113.417 20.9955 113.233 20.9482L111.784 14.0761C112.019 13.8633 112.312 13.7254 112.626 13.68C112.757 13.656 112.891 13.656 113.023 13.68C113.213 13.6607 113.404 13.7103 113.56 13.8198L115.009 20.6686C114.773 20.8832 114.482 21.0283 114.168 21.088L113.794 20.9482Z" fill="white" fill-opacity="0.5"/>
<path id="Vector_20" d="M67.2901 41.285L63.4343 35.9969C63.5392 35.696 63.7457 35.4407 64.0185 35.2748C64.2477 35.0981 64.5241 34.9928 64.813 34.972L68.739 40.2367C68.6076 40.5221 68.4067 40.7703 68.1548 40.9588C67.9027 41.1459 67.6032 41.2589 67.2901 41.285V41.285Z" fill="white"/>
<path id="Vector_21" d="M28.1474 75.7388C28.1431 75.4206 28.2238 75.1071 28.3811 74.8302C28.4538 74.6826 28.5553 74.5509 28.6797 74.4429C28.8041 74.3349 28.9489 74.2527 29.1056 74.2013L34.8543 77.5325C34.8857 77.8533 34.8029 78.1749 34.6206 78.441C34.4809 78.7273 34.2393 78.9515 33.9429 79.07L28.1474 75.7388Z" fill="white" fill-opacity="0.5"/>
<path id="Vector_22" d="M12.1866 126.313C12.0207 126.041 11.9624 125.717 12.023 125.404C12.0246 125.243 12.0585 125.084 12.1227 124.936C12.1869 124.788 12.2801 124.654 12.3969 124.542L19.4075 125.288C19.5461 125.569 19.595 125.886 19.5477 126.196C19.5481 126.518 19.4223 126.828 19.1972 127.058L12.1866 126.313Z" fill="white" fill-opacity="0.5"/>
<path id="Vector_23" d="M18.2625 179.007C17.9924 178.828 17.8004 178.553 17.725 178.238C17.6607 178.091 17.6274 177.933 17.6274 177.772C17.6274 177.612 17.6607 177.453 17.725 177.306L24.3383 175.163C24.5876 175.368 24.7671 175.645 24.8525 175.955C24.9182 176.102 24.9522 176.261 24.9522 176.421C24.9522 176.582 24.9182 176.74 24.8525 176.887L18.2625 179.007Z" fill="white" fill-opacity="0.5"/>
<path id="Vector_24" d="M254.427 176.398C254.332 176.102 254.332 175.785 254.427 175.489C254.591 174.977 254.895 174.721 254.988 174.721L261.555 176.84C261.648 177.144 261.648 177.469 261.555 177.772C261.479 178.087 261.287 178.362 261.017 178.541L254.427 176.398Z" fill="white" fill-opacity="0.5"/>
<path id="Vector_25" d="M259.732 126.499C259.613 126.384 259.519 126.246 259.455 126.094C259.391 125.942 259.358 125.779 259.358 125.614C259.324 125.458 259.323 125.297 259.355 125.14C259.387 124.984 259.452 124.835 259.545 124.706L266.556 123.983C266.761 124.225 266.876 124.529 266.883 124.845C266.918 125.005 266.919 125.17 266.887 125.331C266.855 125.491 266.79 125.643 266.696 125.777L259.732 126.499Z" fill="white" fill-opacity="0.5"/>
<path id="Vector_26" d="M244.893 78.5575C244.596 78.4391 244.355 78.2148 244.215 77.9285C244.117 77.7962 244.048 77.645 244.012 77.4846C243.976 77.3242 243.973 77.1581 244.005 76.9967L249.753 73.6888C250.041 73.8317 250.278 74.0594 250.431 74.3411C250.613 74.6153 250.68 74.9498 250.618 75.2729L244.893 78.5575Z" fill="white" fill-opacity="0.5"/>
<path id="Vector_27" d="M211.359 40.8657C211.07 40.8449 210.793 40.7395 210.564 40.5628C210.29 40.3828 210.091 40.1096 210.003 39.7941L213.789 34.6225C214.112 34.6358 214.423 34.7499 214.677 34.9487C214.951 35.1182 215.151 35.3843 215.238 35.6941L211.452 40.889L211.359 40.8657Z" fill="white" fill-opacity="0.5"/>
<path id="Vector_28" d="M164.738 20.8317H164.341C164.18 20.8122 164.025 20.761 163.885 20.681C163.744 20.601 163.621 20.4938 163.523 20.3658L164.995 13.5403C165.173 13.5099 165.355 13.5099 165.532 13.5403H165.93C166.092 13.5626 166.248 13.6175 166.389 13.7015C166.529 13.7856 166.651 13.8972 166.748 14.0295L165.275 20.855C165.096 20.8777 164.914 20.8699 164.738 20.8317V20.8317Z" fill="white" fill-opacity="0.5"/>
<path id="Vector_29" d="M70.1609 43.7015C69.4351 44.2161 68.6156 44.2863 68.3112 43.8887L62.5043 36.0057C62.2 35.5847 62.5043 34.8362 63.2302 34.3216C63.956 33.8069 64.7756 33.7134 65.0799 34.1344L70.7931 41.994C71.1912 42.415 70.8868 43.1869 70.1609 43.7015Z" fill="white" fill-opacity="0.26"/>
</g>
<path id="arrow-back" d="M20.9745 207C9.5378 187.06 3 163.959 3 139.332C3 94.417 24.7467 54.5751 58.2974 29.7366C80.9903 12.9364 109.083 3 139.5 3C214.887 3 276 64.0378 276 139.332C276 163.959 269.462 187.06 258.026 207" stroke="url(#paint3_linear_3_284)" stroke-width="4" stroke-linecap="round"/>
</g>
<defs>
<filter id="filter0_f_3_284" x="258.849" y="62.8152" width="38.1263" height="159.911" filterUnits="userSpaceOnUse" color-interpolation-filters="sRGB">
<feFlood flood-opacity="0" result="BackgroundImageFix"/>
<feBlend mode="normal" in="SourceGraphic" in2="BackgroundImageFix" result="shape"/>
<feGaussianBlur stdDeviation="3" result="effect1_foregroundBlur_3_284"/>
</filter>
<filter id="filter1_f_3_284" x="73.9996" y="68.001" width="130" height="130" filterUnits="userSpaceOnUse" color-interpolation-filters="sRGB">
<feFlood flood-opacity="0" result="BackgroundImageFix"/>
<feBlend mode="normal" in="SourceGraphic" in2="BackgroundImageFix" result="shape"/>
<feGaussianBlur stdDeviation="2" result="effect1_foregroundBlur_3_284"/>
</filter>
<filter id="filter2_f_3_284" x="61.9996" y="56.001" width="154" height="154" filterUnits="userSpaceOnUse" color-interpolation-filters="sRGB">
<feFlood flood-opacity="0" result="BackgroundImageFix"/>
<feBlend mode="normal" in="SourceGraphic" in2="BackgroundImageFix" result="shape"/>
<feGaussianBlur stdDeviation="5.5" result="effect1_foregroundBlur_3_284"/>
</filter>
<linearGradient id="paint0_linear_3_284" x1="219.993" y1="252.559" x2="274.645" y2="285.169" gradientUnits="userSpaceOnUse">
<stop stop-color="white"/>
<stop offset="1" stop-color="white" stop-opacity="0"/>
</linearGradient>
<linearGradient id="paint1_linear_3_284" x1="244.984" y1="204.095" x2="211.898" y2="104.169" gradientUnits="userSpaceOnUse">
<stop stop-color="white"/>
<stop offset="0.691737" stop-color="white" stop-opacity="0"/>
</linearGradient>
<linearGradient id="paint2_linear_3_284" x1="270.65" y1="201.247" x2="69.4717" y2="84.0291" gradientUnits="userSpaceOnUse">
<stop stop-color="white"/>
<stop offset="1" stop-color="white" stop-opacity="0"/>
</linearGradient>
<linearGradient id="paint3_linear_3_284" x1="-280" y1="312.5" x2="170.271" y2="553.383" gradientUnits="userSpaceOnUse">
<stop stop-color="white"/>
<stop offset="0.958156" stop-color="white" stop-opacity="0"/>
</linearGradient>
</defs>
</svg>
